<svg xmlns="http://www.w3.org/2000/svg" viewBox="0 0 1200 620"><defs><style>.bg{fill:#f4f0e8}.ink{fill:#171717}.muted{fill:#777}.line{stroke:#171717;stroke-width:2;fill:none}.thin{stroke:#aaa;stroke-width:1;fill:none}.red{stroke:#d64b32;stroke-width:3;fill:none}.txt{font:13px monospace;letter-spacing:1px}.head{font:700 34px Georgia,serif}@keyframes pulse{0%,100%{r:5}50%{r:9}}@keyframes scan{from{transform:translateX(-80px)}to{transform:translateX(420px)}}.dot{fill:#d64b32;animation:pulse 2.2s ease-in-out infinite}.scan{stroke:#d64b32;stroke-width:2;animation:scan 4s ease-in-out infinite alternate}}</style></defs><rect width="1200" height="620" class="bg"/><text x="50" y="48" class="txt muted">FIELD GUIDE / SPECIMENS</text><text x="50" y="98" class="head ink">Things I am actually building</text><path d="M50 120H1150" class="thin"/><g transform="translate(55 165)"><rect width="525" height="365" fill="none" stroke="#171717" stroke-width="2"/><text x="28" y="42" class="txt muted">SPECIMEN 01</text><text x="28" y="82" class="head ink">EONOM</text><text x="28" y="110" class="txt muted">AIRBNB-LIKE PLATFORM</text><path d="M70 230h110l65-80 80 80h125" class="line"/><path d="M180 230v65M245 150v145M325 230v65" class="thin"/><circle cx="70" cy="230" r="6" class="dot"/><circle cx="245" cy="150" r="6" class="dot"/><circle cx="450" cy="230" r="6" class="dot"/><text x="45" y="330" class="txt ink">listings / bookings / payments</text><text x="45" y="350" class="txt muted">messaging / recommendations / events</text></g><g transform="translate(620 165)"><rect width="525" height="365" fill="none" stroke="#171717" stroke-width="2"/><text x="28" y="42" class="txt muted">SPECIMEN 02</text><text x="28" y="82" class="head ink">BLESSHMS</text><text x="28" y="110" class="txt muted">HOSPITAL MANAGEMENT SYSTEM</text><path d="M55 225h100M155 225h120M275 225h100M375 225h95" class="line"/><path d="M155 225v-75M275 225v75M375 225v-75" class="thin"/><circle cx="55" cy="225" r="6" class="dot"/><circle cx="275" cy="225" r="6" class="dot"/><circle cx="470" cy="225" r="6" class="dot"/><text x="45" y="330" class="txt ink">patients / clinical / billing</text><text x="45" y="350" class="txt muted">inventory / labs / analytics / RBAC</text></g><path d="M0 575H1200" class="scan"/></svg>