<svg xmlns="http://www.w3.org/2000/svg" viewBox="0 0 1200 520" role="img" aria-labelledby="title desc">
<defs>
<title id="title">Vikram, an engineer's field notes</title>
<desc id="desc">An editorial field guide cover about building systems, products and experiments.</desc>
<style>
.ink{fill:#171716}.muted{fill:#6d6962}.paper{fill:#f4f0e8}.line{stroke:#252421;stroke-width:2;fill:none}.fine{stroke:#aaa49a;stroke-width:1;fill:none}.accentFill{fill:#a94738}
.display{font:700 76px Georgia,'Times New Roman',serif;letter-spacing:-3px}.label{font:700 12px Inter,'Helvetica Neue',Arial,sans-serif;letter-spacing:3px}.note{font:12px 'SFMono-Regular',Consolas,'Liberation Mono',monospace;letter-spacing:1px}.serif{font-family:Georgia,'Times New Roman',serif}
@keyframes draw{from{stroke-dashoffset:1100}to{stroke-dashoffset:0}}@keyframes float{from{transform:translate(0,0)}to{transform:translate(7px,-5px)}}@keyframes reveal{from{opacity:0;transform:translateY(8px)}to{opacity:1;transform:translateY(0)}}
.trace{stroke-dasharray:1100;animation:draw 3.8s cubic-bezier(.2,.8,.2,1) forwards}.marker{animation:float 3.5s ease-in-out infinite alternate}.reveal{animation:reveal 1s cubic-bezier(.2,.8,.2,1) both}
</style>
<pattern id="paperDots" width="18" height="18" patternUnits="userSpaceOnUse"><circle cx="1" cy="1" r=".7" fill="#aaa49a" opacity=".22"/></pattern>
</defs>
<rect width="1200" height="520" class="paper"/><rect width="1200" height="520" fill="url(#paperDots)"/>
<path d="M52 54H1148M52 466H1148" class="fine"/><path d="M52 48v12M1148 48v12M52 460v12M1148 460v12" class="fine"/>
<text x="55" y="39" class="label ink">A STUDY IN BUILDING SYSTEMS</text><text x="1145" y="39" text-anchor="end" class="note muted">VOL. 01 / 2026</text>
<g class="reveal"><text x="58" y="158" class="display ink">VIKRAM</text><text x="62" y="192" class="label muted">SOFTWARE ENGINEER · BACKEND · SYSTEMS · PRODUCTS</text></g>
<g transform="translate(690 75)"><path d="M0 285C52 220 72 105 170 122S300 302 394 238S458 112 510 82" class="line trace"/><path d="M-20 330C70 368 122 205 218 270S356 370 520 290" class="fine"/><path d="M80 62L80 350M80 62H248M248 62V126" class="fine"/><path d="M170 122v-48M170 74h86" class="fine"/><circle cx="170" cy="122" r="7" class="accentFill"/><circle cx="394" cy="238" r="7" class="ink"/><circle cx="510" cy="82" r="5" class="ink"/><g class="marker"><path d="M315 246l34 -18v36z" class="accentFill"/></g><text x="263" y="69" class="note muted">FIELD / 01</text><text x="355" y="220" class="note muted">trace</text></g>
<path d="M58 315H585" class="fine"/><text x="58" y="340" class="label ink">THE WORK</text><text x="58" y="371" class="serif" style="font-size:24px" fill="#171716">Build it. Understand it. Make it hold.</text><text x="58" y="399" class="note muted">backend systems · data · infrastructure · products</text>
<g transform="translate(730 405)"><text x="0" y="0" class="label ink">BUILD</text><text x="92" y="0" class="label muted">/</text><text x="115" y="0" class="label ink">BREAK</text><text x="216" y="0" class="label muted">/</text><text x="240" y="0" class="label ink">UNDERSTAND</text></g>
<text x="58" y="494" class="note muted">FIELD GUIDE / INDIA</text><text x="1145" y="494" text-anchor="end" class="note muted">1200 × 520</text>
</svg>
